<svg width="13" height="7" viewBox="0 0 13 7" fill="none" xmlns="http://www.w3.org/2000/svg">
<path d="M0.101562 0.102941C0.0338542 0.205882 0 0.300245 0 0.386029C0 0.471814 0.169271 0.703431 0.507812 1.08088L5.33203 5.97059C5.77214 6.41667 6.0599 6.69975 6.19531 6.81985C6.33073 6.93995 6.43229 7 6.5 7C6.56771 7 6.66927 6.93995 6.80469 6.81985C6.9401 6.69975 7.22786 6.41667 7.66797 5.97059L12.4922 1.08088C12.8307 0.703431 13 0.471814 13 0.386029C13 0.300245 12.9577 0.214461 12.873 0.128676C12.7884 0.042892 12.7038 0 12.6191 0C12.5345 0 12.3229 0.154412 11.9844 0.463235L6.5 5.97059L1.01562 0.463235C0.677083 0.154412 0.465495 0 0.380859 0C0.296224 0 0.203125 0.0343137 0.101562 0.102941Z" fill="#2B2B33"/>
</svg>
